<svg id="email" xmlns="http://www.w3.org/2000/svg" width="17.107" height="17.107" viewBox="0 0 17.107 17.107">
  <path id="Path_1" data-name="Path 1" d="M0,0H17.107V17.107H0Z" fill="none"/>
  <path id="Path_2" data-name="Path 2" d="M14.83,4H3.426A1.424,1.424,0,0,0,2.007,5.426L2,13.979A1.43,1.43,0,0,0,3.426,15.4h11.4a1.43,1.43,0,0,0,1.426-1.426V5.426A1.43,1.43,0,0,0,14.83,4Zm-.285,3.029L9.506,10.18a.721.721,0,0,1-.756,0L3.711,7.029A.605.605,0,1,1,4.352,6L9.128,8.99,13.9,6a.605.605,0,1,1,.642,1.026Z" transform="translate(-0.574 -1.149)" fill="#242424"/>
</svg>
