<svg xmlns="http://www.w3.org/2000/svg" width="14.767" height="12.002" viewBox="0 0 14.767 12.002">
  <path id="Icon_simple-twitter" data-name="Icon simple-twitter" d="M14.738,4.8A6.153,6.153,0,0,1,13,5.275,3.051,3.051,0,0,0,14.331,3.6a6.253,6.253,0,0,1-1.924.728A3.026,3.026,0,0,0,7.17,6.394a3.1,3.1,0,0,0,.078.692A8.574,8.574,0,0,1,1.009,3.932,2.967,2.967,0,0,0,.6,5.455a3.028,3.028,0,0,0,1.346,2.52A3.017,3.017,0,0,1,.575,7.6v.038A3.029,3.029,0,0,0,3,10.6a3.055,3.055,0,0,1-1.361.052,3.037,3.037,0,0,0,2.833,2.1,6.071,6.071,0,0,1-3.754,1.3A6.426,6.426,0,0,1,0,14.012a8.611,8.611,0,0,0,4.65,1.359,8.551,8.551,0,0,0,8.613-8.605c0-.129,0-.258-.009-.388a6.113,6.113,0,0,0,1.514-1.568Z" transform="translate(0 -3.369)" fill="#242424"/>
</svg>
